# xmcd
# 
# Track frame offsets:
#     150
#     18568
#     39330
#     51323
#     67273
#     91479
#     116008
#     134680
#     156124
#     180327
#     200439
#     219618
#     229266
#     250662
#     275878
# 
# Disc length: 3998
# 
# Revision: 0
# Processed by: cddbd v1.5.2PL0 Copyright (c) Steve Scherf et al.
# Submitted via: BonkEnc v1.0beta4
# 
DISCID=e30f9c0f
DTITLE=linea blu - il meglio del blu 2
DYEAR=2002
DGENRE=New Age
TTITLE0=Ethnic Flower
TTITLE1=Mountains
TTITLE2=Estiva
TTITLE3=Orizzonti
TTITLE4=Sub Piano
TTITLE5=Enigmatik
TTITLE6=Etnoblues
TTITLE7=Etnoblues
TTITLE8=Deepest
TTITLE9=Tribal Disco
TTITLE10=Always
TTITLE11=La Donna dello Sceicco
TTITLE12=Mar Rosso
TTITLE13=Etnimusa
TTITLE14=Calabrina
EXTD=YEAR: 2002
EXTT0=
EXTT1=
EXTT2=
EXTT3=
EXTT4=
EXTT5=
EXTT6=
EXTT7=
EXTT8=
EXTT9=
EXTT10=
EXTT11=
EXTT12=
EXTT13=
EXTT14=
PLAYORDER=
